{
  "header": {
    "PPQ": 480,
    "timeSignature": [
      4,
      4
    ],
    "bpm": 100,
    "name": ""
  },
  "tempo": [
    {
      "absoluteTime": 0,
      "seconds": 0,
      "bpm": 100
    }
  ],
  "timeSignature": [
    {
      "absoluteTime": 0,
      "seconds": 0,
      "numerator": 4,
      "denominator": 2,
      "click": 24,
      "notesQ": 8
    }
  ],
  "startTime": 1.95,
  "duration": 69.59874999999978,
  "tracks": [
    {
      "startTime": 1.95,
      "duration": 69.59874999999978,
      "length": 209,
      "notes": [
        {
          "name": "A4",
          "midi": 69,
          "time": 1.95,
          "velocity": 0.8818897637795275,
          "duration": 0.14874999999999994
        },
        {
          "name": "D5",
          "midi": 74,
          "time": 2.1,
          "velocity": 0.8818897637795275,
          "duration": 0.14875000000000016
        },
        {
          "name": "E5",
          "midi": 76,
          "time": 2.2500000000000004,
          "velocity": 0.8818897637795275,
          "duration": 0.14875000000000016
        },
        {
          "name": "F#5",
          "midi": 78,
          "time": 2.400000000000001,
          "velocity": 0.8818897637795275,
          "duration": 0.5987499999999999
        },
        {
          "name": "E5",
          "midi": 76,
          "time": 3.000000000000001,
          "velocity": 0.8818897637795275,
          "duration": 0.44875
        },
        {
          "name": "D5",
          "midi": 74,
          "time": 3.450000000000001,
          "velocity": 0.8818897637795275,
          "duration": 0.14875000000000016
        },
        {
          "name": "E5",
          "midi": 76,
          "time": 3.6000000000000014,
          "velocity": 0.8818897637795275,
          "duration": 0.14875000000000016
        },
        {
          "name": "D5",
          "midi": 74,
          "time": 3.7500000000000018,
          "velocity": 0.8818897637795275,
          "duration": 0.14875000000000016
        },
        {
          "name": "E5",
          "midi": 76,
          "time": 3.900000000000002,
          "velocity": 0.8818897637795275,
          "duration": 0.14874999999999972
        },
        {
          "name": "F#5",
          "midi": 78,
          "time": 4.050000000000002,
          "velocity": 0.8818897637795275,
          "duration": 0.14874999999999972
        },
        {
          "name": "E5",
          "midi": 76,
          "time": 4.200000000000001,
          "velocity": 0.8818897637795275,
          "duration": 0.29875000000000007
        },
        {
          "name": "B4",
          "midi": 71,
          "time": 4.500000000000001,
          "velocity": 0.8818897637795275,
          "duration": 0.29875000000000007
        },
        {
          "name": "D5",
          "midi": 74,
          "time": 4.800000000000001,
          "velocity": 0.8818897637795275,
          "duration": 0.29875000000000007
        },
        {
          "name": "F#5",
          "midi": 78,
          "time": 5.1000000000000005,
          "velocity": 0.8818897637795275,
          "duration": 0.29875000000000007
        },
        {
          "name": "E5",
          "midi": 76,
          "time": 5.4,
          "velocity": 0.8818897637795275,
          "duration": 0.4487500000000004
        },
        {
          "name": "D5",
          "midi": 74,
          "time": 5.8500000000000005,
          "velocity": 0.8818897637795275,
          "duration": 0.14874999999999972
        },
        {
          "name": "E5",
          "midi": 76,
          "time": 6,
          "velocity": 0.8818897637795275,
          "duration": 0.14874999999999972
        },
        {
          "name": "D5",
          "midi": 74,
          "time": 6.1499999999999995,
          "velocity": 0.8818897637795275,
          "duration": 0.14874999999999972
        },
        {
          "name": "E5",
          "midi": 76,
          "time": 6.299999999999999,
          "velocity": 0.8818897637795275,
          "duration": 0.14874999999999972
        },
        {
          "name": "A5",
          "midi": 81,
          "time": 6.449999999999998,
          "velocity": 0.8818897637795275,
          "duration": 0.14874999999999972
        },
        {
          "name": "E5",
          "midi": 76,
          "time": 6.599999999999998,
          "velocity": 0.8818897637795275,
          "duration": 0.14874999999999972
        },
        {
          "name": "D5",
          "midi": 74,
          "time": 6.749999999999997,
          "velocity": 0.8818897637795275,
          "duration": 0.14874999999999972
        },
        {
          "name": "D5",
          "midi": 74,
          "time": 6.899999999999997,
          "velocity": 0.8818897637795275,
          "duration": 0.29875000000000007
        },
        {
          "name": "F#5",
          "midi": 78,
          "time": 7.4999999999999964,
          "velocity": 0.8818897637795275,
          "duration": 0.29875000000000007
        },
        {
          "name": "E5",
          "midi": 76,
          "time": 7.799999999999996,
          "velocity": 0.8818897637795275,
          "duration": 0.44874999999999954
        },
        {
          "name": "D5",
          "midi": 74,
          "time": 8.249999999999996,
          "velocity": 0.8818897637795275,
          "duration": 0.14874999999999972
        },
        {
          "name": "E5",
          "midi": 76,
          "time": 8.399999999999997,
          "velocity": 0.8818897637795275,
          "duration": 0.14874999999999972
        },
        {
          "name": "D5",
          "midi": 74,
          "time": 8.549999999999997,
          "velocity": 0.8818897637795275,
          "duration": 0.14874999999999972
        },
        {
          "name": "E5",
          "midi": 76,
          "time": 8.699999999999998,
          "velocity": 0.8818897637795275,
          "duration": 0.14874999999999972
        },
        {
          "name": "F#5",
          "midi": 78,
          "time": 8.849999999999998,
          "velocity": 0.8818897637795275,
          "duration": 0.14874999999999972
        },
        {
          "name": "E5",
          "midi": 76,
          "time": 8.999999999999998,
          "velocity": 0.8818897637795275,
          "duration": 0.29875000000000007
        },
        {
          "name": "D5",
          "midi": 74,
          "time": 9.299999999999999,
          "velocity": 0.8818897637795275,
          "duration": 0.29875000000000007
        },
        {
          "name": "F#5",
          "midi": 78,
          "time": 11.999999999999998,
          "velocity": 0.8818897637795275,
          "duration": 0.5987500000000008
        },
        {
          "name": "E5",
          "midi": 76,
          "time": 12.6,
          "velocity": 0.8818897637795275,
          "duration": 0.4487500000000004
        },
        {
          "name": "D5",
          "midi": 74,
          "time": 13.05,
          "velocity": 0.8818897637795275,
          "duration": 0.14874999999999972
        },
        {
          "name": "E5",
          "midi": 76,
          "time": 13.200000000000001,
          "velocity": 0.8818897637795275,
          "duration": 0.14874999999999972
        },
        {
          "name": "D5",
          "midi": 74,
          "time": 13.350000000000001,
          "velocity": 0.8818897637795275,
          "duration": 0.14874999999999972
        },
        {
          "name": "E5",
          "midi": 76,
          "time": 13.500000000000002,
          "velocity": 0.8818897637795275,
          "duration": 0.14874999999999972
        },
        {
          "name": "F#5",
          "midi": 78,
          "time": 13.650000000000002,
          "velocity": 0.8818897637795275,
          "duration": 0.14874999999999972
        },
        {
          "name": "E5",
          "midi": 76,
          "time": 13.800000000000002,
          "velocity": 0.8818897637795275,
          "duration": 0.29875000000000007
        },
        {
          "name": "B4",
          "midi": 71,
          "time": 14.100000000000003,
          "velocity": 0.8818897637795275,
          "duration": 0.29875000000000007
        },
        {
          "name": "D5",
          "midi": 74,
          "time": 14.400000000000004,
          "velocity": 0.8818897637795275,
          "duration": 0.29875000000000007
        },
        {
          "name": "F#5",
          "midi": 78,
          "time": 14.700000000000005,
          "velocity": 0.8818897637795275,
          "duration": 0.29875000000000007
        },
        {
          "name": "E5",
          "midi": 76,
          "time": 15.000000000000005,
          "velocity": 0.8818897637795275,
          "duration": 0.4487500000000004
        },
        {
          "name": "D5",
          "midi": 74,
          "time": 15.450000000000006,
          "velocity": 0.8818897637795275,
          "duration": 0.14874999999999972
        },
        {
          "name": "A#5",
          "midi": 82,
          "time": 15.600000000000007,
          "velocity": 0.8818897637795275,
          "duration": 0.29875000000000007
        },
        {
          "name": "E5",
          "midi": 76,
          "time": 15.900000000000007,
          "velocity": 0.8818897637795275,
          "duration": 0.1487500000000015
        },
        {
          "name": "F#5",
          "midi": 78,
          "time": 16.050000000000008,
          "velocity": 0.8818897637795275,
          "duration": 0.14874999999999972
        },
        {
          "name": "E5",
          "midi": 76,
          "time": 16.200000000000006,
          "velocity": 0.8818897637795275,
          "duration": 0.14874999999999972
        },
        {
          "name": "D5",
          "midi": 74,
          "time": 16.350000000000005,
          "velocity": 0.8818897637795275,
          "duration": 0.14874999999999972
        },
        {
          "name": "D5",
          "midi": 74,
          "time": 16.500000000000004,
          "velocity": 0.8818897637795275,
          "duration": 0.2987499999999983
        },
        {
          "name": "F#5",
          "midi": 78,
          "time": 17.1,
          "velocity": 0.8818897637795275,
          "duration": 0.2987499999999983
        },
        {
          "name": "E5",
          "midi": 76,
          "time": 17.4,
          "velocity": 0.8818897637795275,
          "duration": 0.4487500000000004
        },
        {
          "name": "D5",
          "midi": 74,
          "time": 17.849999999999998,
          "velocity": 0.8818897637795275,
          "duration": 0.14874999999999972
        },
        {
          "name": "E5",
          "midi": 76,
          "time": 17.999999999999996,
          "velocity": 0.8818897637795275,
          "duration": 0.14874999999999972
        },
        {
          "name": "D5",
          "midi": 74,
          "time": 18.149999999999995,
          "velocity": 0.8818897637795275,
          "duration": 0.14874999999999972
        },
        {
          "name": "E5",
          "midi": 76,
          "time": 18.299999999999994,
          "velocity": 0.8818897637795275,
          "duration": 0.14874999999999972
        },
        {
          "name": "F#5",
          "midi": 78,
          "time": 18.449999999999992,
          "velocity": 0.8818897637795275,
          "duration": 0.14874999999999972
        },
        {
          "name": "E5",
          "midi": 76,
          "time": 18.59999999999999,
          "velocity": 0.8818897637795275,
          "duration": 0.14874999999999972
        },
        {
          "name": "D5",
          "midi": 74,
          "time": 18.74999999999999,
          "velocity": 0.8818897637795275,
          "duration": 0.14874999999999972
        },
        {
          "name": "D5",
          "midi": 74,
          "time": 18.899999999999988,
          "velocity": 0.8818897637795275,
          "duration": 0.2987499999999983
        },
        {
          "name": "D5",
          "midi": 74,
          "time": 21.899999999999984,
          "velocity": 0.8818897637795275,
          "duration": 0.2987499999999983
        },
        {
          "name": "D5",
          "midi": 74,
          "time": 22.19999999999998,
          "velocity": 0.8818897637795275,
          "duration": 0.4487500000000004
        },
        {
          "name": "B4",
          "midi": 71,
          "time": 22.64999999999998,
          "velocity": 0.8818897637795275,
          "duration": 0.14874999999999972
        },
        {
          "name": "D5",
          "midi": 74,
          "time": 22.79999999999998,
          "velocity": 0.8818897637795275,
          "duration": 0.14874999999999972
        },
        {
          "name": "B4",
          "midi": 71,
          "time": 22.949999999999978,
          "velocity": 0.8818897637795275,
          "duration": 0.14874999999999972
        },
        {
          "name": "D5",
          "midi": 74,
          "time": 23.099999999999977,
          "velocity": 0.8818897637795275,
          "duration": 0.14874999999999972
        },
        {
          "name": "B4",
          "midi": 71,
          "time": 23.249999999999975,
          "velocity": 0.8818897637795275,
          "duration": 0.14874999999999972
        },
        {
          "name": "D5",
          "midi": 74,
          "time": 23.399999999999974,
          "velocity": 0.8818897637795275,
          "duration": 0.2987499999999983
        },
        {
          "name": "F#5",
          "midi": 78,
          "time": 23.69999999999997,
          "velocity": 0.8818897637795275,
          "duration": 0.2987499999999983
        },
        {
          "name": "F#4",
          "midi": 66,
          "time": 24.29999999999997,
          "velocity": 0.8818897637795275,
          "duration": 0.14874999999999972
        },
        {
          "name": "G4",
          "midi": 67,
          "time": 24.449999999999967,
          "velocity": 0.8818897637795275,
          "duration": 0.14874999999999972
        },
        {
          "name": "A4",
          "midi": 69,
          "time": 24.599999999999966,
          "velocity": 0.8818897637795275,
          "duration": 0.2987499999999983
        },
        {
          "name": "F#4",
          "midi": 66,
          "time": 24.899999999999963,
          "velocity": 0.8818897637795275,
          "duration": 0.14874999999999972
        },
        {
          "name": "G4",
          "midi": 67,
          "time": 25.04999999999996,
          "velocity": 0.8818897637795275,
          "duration": 0.14874999999999972
        },
        {
          "name": "A4",
          "midi": 69,
          "time": 25.19999999999996,
          "velocity": 0.8818897637795275,
          "duration": 0.2987499999999983
        },
        {
          "name": "E5",
          "midi": 76,
          "time": 25.499999999999957,
          "velocity": 0.8818897637795275,
          "duration": 0.2987499999999983
        },
        {
          "name": "F#5",
          "midi": 78,
          "time": 25.799999999999955,
          "velocity": 0.8818897637795275,
          "duration": 0.2987499999999983
        },
        {
          "name": "G5",
          "midi": 79,
          "time": 26.09999999999995,
          "velocity": 0.8818897637795275,
          "duration": 0.14874999999999972
        },
        {
          "name": "F#5",
          "midi": 78,
          "time": 26.24999999999995,
          "velocity": 0.8818897637795275,
          "duration": 0.2987499999999983
        },
        {
          "name": "B4",
          "midi": 71,
          "time": 26.549999999999947,
          "velocity": 0.8818897637795275,
          "duration": 0.14874999999999972
        },
        {
          "name": "D5",
          "midi": 74,
          "time": 26.699999999999946,
          "velocity": 0.8818897637795275,
          "duration": 0.2987499999999983
        },
        {
          "name": "B4",
          "midi": 71,
          "time": 27.149999999999945,
          "velocity": 0.8818897637795275,
          "duration": 0.14874999999999972
        },
        {
          "name": "B4",
          "midi": 71,
          "time": 27.299999999999944,
          "velocity": 0.8818897637795275,
          "duration": 0.14874999999999972
        },
        {
          "name": "C#5",
          "midi": 73,
          "time": 27.449999999999942,
          "velocity": 0.8818897637795275,
          "duration": 0.14874999999999972
        },
        {
          "name": "D5",
          "midi": 74,
          "time": 27.59999999999994,
          "velocity": 0.8818897637795275,
          "duration": 0.2987499999999983
        },
        {
          "name": "C#5",
          "midi": 73,
          "time": 27.899999999999938,
          "velocity": 0.8818897637795275,
          "duration": 0.2987499999999983
        },
        {
          "name": "B4",
          "midi": 71,
          "time": 28.199999999999935,
          "velocity": 0.8818897637795275,
          "duration": 0.14874999999999972
        },
        {
          "name": "C#5",
          "midi": 73,
          "time": 28.349999999999934,
          "velocity": 0.8818897637795275,
          "duration": 0.14874999999999972
        },
        {
          "name": "E5",
          "midi": 76,
          "time": 28.499999999999932,
          "velocity": 0.8818897637795275,
          "duration": 0.2987499999999983
        },
        {
          "name": "D5",
          "midi": 74,
          "time": 28.79999999999993,
          "velocity": 0.8818897637795275,
          "duration": 2.3987500000000033
        },
        {
          "name": "G5",
          "midi": 79,
          "time": 31.199999999999932,
          "velocity": 0.8818897637795275,
          "duration": 0.14874999999999972
        },
        {
          "name": "A5",
          "midi": 81,
          "time": 31.34999999999993,
          "velocity": 0.8818897637795275,
          "duration": 0.2987499999999983
        },
        {
          "name": "G5",
          "midi": 79,
          "time": 31.649999999999928,
          "velocity": 0.8818897637795275,
          "duration": 0.14874999999999972
        },
        {
          "name": "A5",
          "midi": 81,
          "time": 31.799999999999926,
          "velocity": 0.8818897637795275,
          "duration": 0.2987499999999983
        },
        {
          "name": "G5",
          "midi": 79,
          "time": 32.09999999999992,
          "velocity": 0.8818897637795275,
          "duration": 0.14874999999999972
        },
        {
          "name": "D6",
          "midi": 86,
          "time": 32.24999999999992,
          "velocity": 0.8818897637795275,
          "duration": 0.2987499999999983
        },
        {
          "name": "G5",
          "midi": 79,
          "time": 32.54999999999992,
          "velocity": 0.8818897637795275,
          "duration": 0.14874999999999972
        },
        {
          "name": "A5",
          "midi": 81,
          "time": 32.69999999999992,
          "velocity": 0.8818897637795275,
          "duration": 0.14874999999999972
        },
        {
          "name": "B5",
          "midi": 83,
          "time": 32.849999999999916,
          "velocity": 0.8818897637795275,
          "duration": 0.14874999999999972
        },
        {
          "name": "A5",
          "midi": 81,
          "time": 32.999999999999915,
          "velocity": 0.8818897637795275,
          "duration": 0.2987499999999983
        },
        {
          "name": "G5",
          "midi": 79,
          "time": 33.29999999999991,
          "velocity": 0.8818897637795275,
          "duration": 0.14874999999999972
        },
        {
          "name": "D#5",
          "midi": 75,
          "time": 33.44999999999991,
          "velocity": 0.8818897637795275,
          "duration": 0.14874999999999972
        },
        {
          "name": "G5",
          "midi": 79,
          "time": 33.59999999999991,
          "velocity": 0.8818897637795275,
          "duration": 0.14874999999999972
        },
        {
          "name": "A5",
          "midi": 81,
          "time": 33.74999999999991,
          "velocity": 0.8818897637795275,
          "duration": 0.2987499999999983
        },
        {
          "name": "G5",
          "midi": 79,
          "time": 34.049999999999905,
          "velocity": 0.8818897637795275,
          "duration": 0.14874999999999972
        },
        {
          "name": "A5",
          "midi": 81,
          "time": 34.1999999999999,
          "velocity": 0.8818897637795275,
          "duration": 0.2987499999999983
        },
        {
          "name": "G5",
          "midi": 79,
          "time": 34.4999999999999,
          "velocity": 0.8818897637795275,
          "duration": 0.14874999999999972
        },
        {
          "name": "D#6",
          "midi": 87,
          "time": 34.6499999999999,
          "velocity": 0.8818897637795275,
          "duration": 0.2987499999999983
        },
        {
          "name": "G5",
          "midi": 79,
          "time": 34.949999999999896,
          "velocity": 0.8818897637795275,
          "duration": 0.14874999999999972
        },
        {
          "name": "A5",
          "midi": 81,
          "time": 35.099999999999895,
          "velocity": 0.8818897637795275,
          "duration": 0.14874999999999972
        },
        {
          "name": "B5",
          "midi": 83,
          "time": 35.24999999999989,
          "velocity": 0.8818897637795275,
          "duration": 0.14874999999999972
        },
        {
          "name": "A5",
          "midi": 81,
          "time": 35.39999999999989,
          "velocity": 0.8818897637795275,
          "duration": 0.2987499999999983
        },
        {
          "name": "G5",
          "midi": 79,
          "time": 35.69999999999989,
          "velocity": 0.8818897637795275,
          "duration": 0.14874999999999972
        },
        {
          "name": "F#5",
          "midi": 78,
          "time": 35.84999999999989,
          "velocity": 0.8818897637795275,
          "duration": 0.14874999999999972
        },
        {
          "name": "G5",
          "midi": 79,
          "time": 35.999999999999886,
          "velocity": 0.8818897637795275,
          "duration": 0.2987499999999983
        },
        {
          "name": "E5",
          "midi": 76,
          "time": 36.44999999999988,
          "velocity": 0.8818897637795275,
          "duration": 0.14874999999999972
        },
        {
          "name": "G5",
          "midi": 79,
          "time": 36.59999999999988,
          "velocity": 0.8818897637795275,
          "duration": 0.14874999999999972
        },
        {
          "name": "A5",
          "midi": 81,
          "time": 36.74999999999988,
          "velocity": 0.8818897637795275,
          "duration": 0.14874999999999972
        },
        {
          "name": "B5",
          "midi": 83,
          "time": 36.89999999999988,
          "velocity": 0.8818897637795275,
          "duration": 0.14874999999999972
        },
        {
          "name": "C6",
          "midi": 84,
          "time": 37.049999999999876,
          "velocity": 0.8818897637795275,
          "duration": 0.14874999999999972
        },
        {
          "name": "D6",
          "midi": 86,
          "time": 37.199999999999875,
          "velocity": 0.8818897637795275,
          "duration": 0.2987499999999983
        },
        {
          "name": "B5",
          "midi": 83,
          "time": 37.49999999999987,
          "velocity": 0.8818897637795275,
          "duration": 0.2987499999999983
        },
        {
          "name": "D6",
          "midi": 86,
          "time": 37.79999999999987,
          "velocity": 0.8818897637795275,
          "duration": 0.2987499999999983
        },
        {
          "name": "E6",
          "midi": 88,
          "time": 38.099999999999866,
          "velocity": 0.8818897637795275,
          "duration": 0.2987499999999983
        },
        {
          "name": "D6",
          "midi": 86,
          "time": 38.399999999999864,
          "velocity": 0.8818897637795275,
          "duration": 0.5987500000000026
        },
        {
          "name": "A5",
          "midi": 81,
          "time": 38.999999999999865,
          "velocity": 0.8818897637795275,
          "duration": 0.5987500000000026
        },
        {
          "name": "C6",
          "midi": 84,
          "time": 39.599999999999866,
          "velocity": 0.8818897637795275,
          "duration": 0.5987500000000026
        },
        {
          "name": "B5",
          "midi": 83,
          "time": 40.19999999999987,
          "velocity": 0.8818897637795275,
          "duration": 0.5987500000000026
        },
        {
          "name": "E5",
          "midi": 76,
          "time": 40.79999999999987,
          "velocity": 0.9921259842519685,
          "duration": 0.5987500000000026
        },
        {
          "name": "E5",
          "midi": 76,
          "time": 41.699999999999875,
          "velocity": 0.9921259842519685,
          "duration": 0.2987499999999983
        },
        {
          "name": "B5",
          "midi": 83,
          "time": 41.99999999999987,
          "velocity": 0.9921259842519685,
          "duration": 0.2987499999999983
        },
        {
          "name": "A5",
          "midi": 81,
          "time": 42.29999999999987,
          "velocity": 0.9921259842519685,
          "duration": 0.2987499999999983
        },
        {
          "name": "G5",
          "midi": 79,
          "time": 42.599999999999866,
          "velocity": 0.9921259842519685,
          "duration": 0.2987499999999983
        },
        {
          "name": "D#5",
          "midi": 75,
          "time": 42.899999999999864,
          "velocity": 0.9921259842519685,
          "duration": 0.2987499999999983
        },
        {
          "name": "D5",
          "midi": 74,
          "time": 43.19999999999986,
          "velocity": 0.9921259842519685,
          "duration": 0.5987500000000026
        },
        {
          "name": "D5",
          "midi": 74,
          "time": 44.099999999999866,
          "velocity": 0.9921259842519685,
          "duration": 0.2987499999999983
        },
        {
          "name": "G5",
          "midi": 79,
          "time": 44.399999999999864,
          "velocity": 0.9921259842519685,
          "duration": 0.2987499999999983
        },
        {
          "name": "F#5",
          "midi": 78,
          "time": 44.69999999999986,
          "velocity": 0.9921259842519685,
          "duration": 0.2987499999999983
        },
        {
          "name": "D5",
          "midi": 74,
          "time": 44.99999999999986,
          "velocity": 0.9921259842519685,
          "duration": 0.2987499999999983
        },
        {
          "name": "B4",
          "midi": 71,
          "time": 45.299999999999855,
          "velocity": 0.9921259842519685,
          "duration": 0.2987499999999983
        },
        {
          "name": "C5",
          "midi": 72,
          "time": 45.59999999999985,
          "velocity": 0.9921259842519685,
          "duration": 0.2987499999999983
        },
        {
          "name": "D5",
          "midi": 74,
          "time": 45.89999999999985,
          "velocity": 0.9921259842519685,
          "duration": 0.2987499999999983
        },
        {
          "name": "D#5",
          "midi": 75,
          "time": 46.19999999999985,
          "velocity": 0.9921259842519685,
          "duration": 0.2987499999999983
        },
        {
          "name": "D#5",
          "midi": 75,
          "time": 46.499999999999844,
          "velocity": 0.9921259842519685,
          "duration": 0.5987500000000026
        },
        {
          "name": "D5",
          "midi": 74,
          "time": 47.099999999999845,
          "velocity": 0.9921259842519685,
          "duration": 0.2987499999999983
        },
        {
          "name": "C5",
          "midi": 72,
          "time": 47.39999999999984,
          "velocity": 0.9921259842519685,
          "duration": 0.2987499999999983
        },
        {
          "name": "G5",
          "midi": 79,
          "time": 47.69999999999984,
          "velocity": 0.9921259842519685,
          "duration": 0.5987500000000026
        },
        {
          "name": "D#5",
          "midi": 75,
          "time": 48.29999999999984,
          "velocity": 0.9921259842519685,
          "duration": 0.5987500000000026
        },
        {
          "name": "G5",
          "midi": 79,
          "time": 48.89999999999984,
          "velocity": 0.9921259842519685,
          "duration": 0.5987500000000026
        },
        {
          "name": "A5",
          "midi": 81,
          "time": 49.499999999999844,
          "velocity": 0.9921259842519685,
          "duration": 0.2987499999999983
        },
        {
          "name": "A5",
          "midi": 81,
          "time": 49.79999999999984,
          "velocity": 0.9921259842519685,
          "duration": 0.5987500000000026
        },
        {
          "name": "G5",
          "midi": 79,
          "time": 50.39999999999984,
          "velocity": 0.9921259842519685,
          "duration": 0.14874999999999972
        },
        {
          "name": "A5",
          "midi": 81,
          "time": 50.54999999999984,
          "velocity": 0.9921259842519685,
          "duration": 0.2987499999999983
        },
        {
          "name": "G5",
          "midi": 79,
          "time": 50.84999999999984,
          "velocity": 0.9921259842519685,
          "duration": 0.14874999999999972
        },
        {
          "name": "A5",
          "midi": 81,
          "time": 50.99999999999984,
          "velocity": 0.9921259842519685,
          "duration": 0.2987499999999983
        },
        {
          "name": "G5",
          "midi": 79,
          "time": 51.299999999999834,
          "velocity": 0.9921259842519685,
          "duration": 0.14874999999999972
        },
        {
          "name": "D6",
          "midi": 86,
          "time": 51.44999999999983,
          "velocity": 0.9921259842519685,
          "duration": 0.2987499999999983
        },
        {
          "name": "G5",
          "midi": 79,
          "time": 51.74999999999983,
          "velocity": 0.9921259842519685,
          "duration": 0.14874999999999972
        },
        {
          "name": "A5",
          "midi": 81,
          "time": 51.89999999999983,
          "velocity": 0.9921259842519685,
          "duration": 0.14874999999999972
        },
        {
          "name": "B5",
          "midi": 83,
          "time": 52.04999999999983,
          "velocity": 0.9921259842519685,
          "duration": 0.14874999999999972
        },
        {
          "name": "A5",
          "midi": 81,
          "time": 52.199999999999825,
          "velocity": 0.9921259842519685,
          "duration": 0.2987499999999983
        },
        {
          "name": "G5",
          "midi": 79,
          "time": 52.49999999999982,
          "velocity": 0.9921259842519685,
          "duration": 0.2987499999999983
        },
        {
          "name": "G5",
          "midi": 79,
          "time": 52.79999999999982,
          "velocity": 0.9921259842519685,
          "duration": 0.14874999999999972
        },
        {
          "name": "A5",
          "midi": 81,
          "time": 52.94999999999982,
          "velocity": 0.9921259842519685,
          "duration": 0.2987499999999983
        },
        {
          "name": "G5",
          "midi": 79,
          "time": 53.249999999999815,
          "velocity": 0.9921259842519685,
          "duration": 0.14874999999999972
        },
        {
          "name": "A5",
          "midi": 81,
          "time": 53.399999999999814,
          "velocity": 0.9921259842519685,
          "duration": 0.2987499999999983
        },
        {
          "name": "G5",
          "midi": 79,
          "time": 53.69999999999981,
          "velocity": 0.9921259842519685,
          "duration": 0.14874999999999972
        },
        {
          "name": "D#6",
          "midi": 87,
          "time": 53.84999999999981,
          "velocity": 0.9921259842519685,
          "duration": 0.2987499999999983
        },
        {
          "name": "G5",
          "midi": 79,
          "time": 54.14999999999981,
          "velocity": 0.9921259842519685,
          "duration": 0.14874999999999972
        },
        {
          "name": "A5",
          "midi": 81,
          "time": 54.299999999999805,
          "velocity": 0.9921259842519685,
          "duration": 0.14874999999999972
        },
        {
          "name": "B5",
          "midi": 83,
          "time": 54.449999999999804,
          "velocity": 0.9921259842519685,
          "duration": 0.14874999999999972
        },
        {
          "name": "A5",
          "midi": 81,
          "time": 54.5999999999998,
          "velocity": 0.9921259842519685,
          "duration": 0.2987499999999983
        },
        {
          "name": "G5",
          "midi": 79,
          "time": 54.8999999999998,
          "velocity": 0.9921259842519685,
          "duration": 0.2987499999999983
        },
        {
          "name": "A5",
          "midi": 81,
          "time": 55.349999999999795,
          "velocity": 0.9921259842519685,
          "duration": 0.2987499999999983
        },
        {
          "name": "G5",
          "midi": 79,
          "time": 55.64999999999979,
          "velocity": 0.9921259842519685,
          "duration": 0.14874999999999972
        },
        {
          "name": "A5",
          "midi": 81,
          "time": 55.79999999999979,
          "velocity": 0.9921259842519685,
          "duration": 0.2987499999999983
        },
        {
          "name": "G5",
          "midi": 79,
          "time": 56.09999999999979,
          "velocity": 0.9921259842519685,
          "duration": 0.2987499999999983
        },
        {
          "name": "D6",
          "midi": 86,
          "time": 56.399999999999785,
          "velocity": 0.9921259842519685,
          "duration": 0.2987499999999983
        },
        {
          "name": "B5",
          "midi": 83,
          "time": 56.69999999999978,
          "velocity": 0.9921259842519685,
          "duration": 0.2987499999999983
        },
        {
          "name": "D6",
          "midi": 86,
          "time": 56.99999999999978,
          "velocity": 0.9921259842519685,
          "duration": 0.2987499999999983
        },
        {
          "name": "E6",
          "midi": 88,
          "time": 57.29999999999978,
          "velocity": 0.9921259842519685,
          "duration": 0.2987499999999983
        },
        {
          "name": "D6",
          "midi": 86,
          "time": 57.599999999999774,
          "velocity": 0.9921259842519685,
          "duration": 0.5987500000000026
        },
        {
          "name": "B5",
          "midi": 83,
          "time": 58.199999999999775,
          "velocity": 0.9921259842519685,
          "duration": 0.5987500000000026
        },
        {
          "name": "C6",
          "midi": 84,
          "time": 58.79999999999978,
          "velocity": 0.9921259842519685,
          "duration": 0.5987500000000026
        },
        {
          "name": "B5",
          "midi": 83,
          "time": 59.39999999999978,
          "velocity": 0.9921259842519685,
          "duration": 0.5987500000000026
        },
        {
          "name": "E5",
          "midi": 76,
          "time": 59.99999999999978,
          "velocity": 0.9921259842519685,
          "duration": 0.5987500000000026
        },
        {
          "name": "E5",
          "midi": 76,
          "time": 60.899999999999785,
          "velocity": 0.9921259842519685,
          "duration": 0.2987499999999983
        },
        {
          "name": "B5",
          "midi": 83,
          "time": 61.19999999999978,
          "velocity": 0.9921259842519685,
          "duration": 0.2987499999999983
        },
        {
          "name": "A5",
          "midi": 81,
          "time": 61.49999999999978,
          "velocity": 0.9921259842519685,
          "duration": 0.2987499999999983
        },
        {
          "name": "G5",
          "midi": 79,
          "time": 61.79999999999978,
          "velocity": 0.9921259842519685,
          "duration": 0.2987499999999983
        },
        {
          "name": "D#5",
          "midi": 75,
          "time": 62.099999999999774,
          "velocity": 0.9921259842519685,
          "duration": 0.2987499999999983
        },
        {
          "name": "D5",
          "midi": 74,
          "time": 62.39999999999977,
          "velocity": 0.9921259842519685,
          "duration": 0.5987500000000026
        },
        {
          "name": "D6",
          "midi": 86,
          "time": 63.29999999999978,
          "velocity": 0.9921259842519685,
          "duration": 0.2987499999999983
        },
        {
          "name": "C6",
          "midi": 84,
          "time": 63.599999999999774,
          "velocity": 0.9921259842519685,
          "duration": 0.2987499999999983
        },
        {
          "name": "B5",
          "midi": 83,
          "time": 63.89999999999977,
          "velocity": 0.9921259842519685,
          "duration": 0.2987500000000054
        },
        {
          "name": "A5",
          "midi": 81,
          "time": 64.19999999999978,
          "velocity": 0.9921259842519685,
          "duration": 0.2987499999999983
        },
        {
          "name": "B5",
          "midi": 83,
          "time": 64.49999999999977,
          "velocity": 0.9921259842519685,
          "duration": 0.2987499999999983
        },
        {
          "name": "B5",
          "midi": 83,
          "time": 64.79999999999977,
          "velocity": 0.9921259842519685,
          "duration": 0.2987499999999983
        },
        {
          "name": "E5",
          "midi": 76,
          "time": 65.09999999999977,
          "velocity": 0.9921259842519685,
          "duration": 0.14875000000000682
        },
        {
          "name": "G5",
          "midi": 79,
          "time": 65.24999999999977,
          "velocity": 0.9921259842519685,
          "duration": 0.2987499999999983
        },
        {
          "name": "E5",
          "midi": 76,
          "time": 65.54999999999977,
          "velocity": 0.9921259842519685,
          "duration": 0.14875000000000682
        },
        {
          "name": "E5",
          "midi": 76,
          "time": 65.69999999999978,
          "velocity": 0.9921259842519685,
          "duration": 0.14875000000000682
        },
        {
          "name": "F#5",
          "midi": 78,
          "time": 65.84999999999978,
          "velocity": 0.9921259842519685,
          "duration": 0.14875000000000682
        },
        {
          "name": "G5",
          "midi": 79,
          "time": 65.99999999999979,
          "velocity": 0.9921259842519685,
          "duration": 0.2987499999999983
        },
        {
          "name": "F#5",
          "midi": 78,
          "time": 66.29999999999978,
          "velocity": 0.9921259842519685,
          "duration": 0.2987499999999983
        },
        {
          "name": "E5",
          "midi": 76,
          "time": 66.59999999999978,
          "velocity": 0.9921259842519685,
          "duration": 0.2987499999999983
        },
        {
          "name": "F#5",
          "midi": 78,
          "time": 66.89999999999978,
          "velocity": 0.9921259842519685,
          "duration": 0.2987499999999983
        },
        {
          "name": "G5",
          "midi": 79,
          "time": 67.19999999999978,
          "velocity": 0.9921259842519685,
          "duration": 2.398750000000007
        }
      ],
      "controlChanges": {
        "7": [
          {
            "number": 7,
            "time": 0,
            "value": 0.7874015748031497
          }
        ],
        "10": [
          {
            "number": 10,
            "time": 0,
            "value": 0.5669291338582677
          }
        ],
        "91": [
          {
            "number": 91,
            "time": 0,
            "value": 1
          }
        ],
        "93": [
          {
            "number": 93,
            "time": 0,
            "value": 0
          }
        ],
        "121": [
          {
            "number": 121,
            "time": 0,
            "value": 0
          }
        ]
      },
      "id": 0,
      "name": "Xylophone",
      "instrumentNumber": 13,
      "instrument": "xylophone",
      "instrumentFamily": "chromatic percussion",
      "channelNumber": 2,
      "isPercussion": false
    }
  ]
}