{
  "header": {
    "keySignatures": [
      {
        "key": "C",
        "scale": "major",
        "ticks": 0
      }
    ],
    "meta": [],
    "name": "Piano\u0000",
    "ppq": 480,
    "tempos": [
      {
        "bpm": 100,
        "ticks": 0
      }
    ],
    "timeSignatures": [
      {
        "ticks": 0,
        "timeSignature": [
          4,
          4
        ],
        "measures": 0
      }
    ]
  },
  "tracks": [
    {
      "channel": 0,
      "controlChanges": {
        "7": [
          {
            "number": 7,
            "ticks": 0,
            "time": 0,
            "value": 0.7874015748031497
          }
        ],
        "10": [
          {
            "number": 10,
            "ticks": 0,
            "time": 0,
            "value": 0.5039370078740157
          }
        ],
        "91": [
          {
            "number": 91,
            "ticks": 0,
            "time": 0,
            "value": 0
          }
        ],
        "93": [
          {
            "number": 93,
            "ticks": 0,
            "time": 0,
            "value": 0
          }
        ],
        "121": [
          {
            "number": 121,
            "ticks": 0,
            "time": 0,
            "value": 0
          }
        ]
      },
      "pitchBends": [],
      "instrument": {
        "family": "piano",
        "name": "acoustic grand piano",
        "number": 0
      },
      "name": "Piano\u0000",
      "notes": [
        {
          "duration": 0.56875,
          "durationTicks": 455,
          "midi": 60,
          "name": "C4",
          "ticks": 0,
          "time": 0,
          "velocity": 0.6299212598425197
        },
        {
          "duration": 0.56875,
          "durationTicks": 455,
          "midi": 62,
          "name": "D4",
          "ticks": 480,
          "time": 0.6,
          "velocity": 0.6299212598425197
        },
        {
          "duration": 0.5687499999999999,
          "durationTicks": 455,
          "midi": 64,
          "name": "E4",
          "ticks": 960,
          "time": 1.2,
          "velocity": 0.6299212598425197
        },
        {
          "duration": 0.5687500000000001,
          "durationTicks": 455,
          "midi": 65,
          "name": "F4",
          "ticks": 1440,
          "time": 1.7999999999999998,
          "velocity": 0.6299212598425197
        },
        {
          "duration": 0.5687500000000001,
          "durationTicks": 455,
          "midi": 67,
          "name": "G4",
          "ticks": 1920,
          "time": 2.4,
          "velocity": 0.6299212598425197
        },
        {
          "duration": 0.5687500000000001,
          "durationTicks": 455,
          "midi": 69,
          "name": "A4",
          "ticks": 2400,
          "time": 3,
          "velocity": 0.6299212598425197
        },
        {
          "duration": 0.5687500000000005,
          "durationTicks": 455,
          "midi": 71,
          "name": "B4",
          "ticks": 2880,
          "time": 3.5999999999999996,
          "velocity": 0.6299212598425197
        },
        {
          "duration": 0.5687499999999996,
          "durationTicks": 455,
          "midi": 72,
          "name": "C5",
          "ticks": 3360,
          "time": 4.2,
          "velocity": 0.6299212598425197
        },
        {
          "duration": 0.5687499999999996,
          "durationTicks": 455,
          "midi": 74,
          "name": "D5",
          "ticks": 3840,
          "time": 4.8,
          "velocity": 0.6299212598425197
        },
        {
          "duration": 0.5687499999999996,
          "durationTicks": 455,
          "midi": 76,
          "name": "E5",
          "ticks": 4320,
          "time": 5.3999999999999995,
          "velocity": 0.6299212598425197
        },
        {
          "duration": 0.5687499999999996,
          "durationTicks": 455,
          "midi": 77,
          "name": "F5",
          "ticks": 4800,
          "time": 6,
          "velocity": 0.6299212598425197
        },
        {
          "duration": 0.5687499999999996,
          "durationTicks": 455,
          "midi": 79,
          "name": "G5",
          "ticks": 5280,
          "time": 6.6,
          "velocity": 0.6299212598425197
        },
        {
          "duration": 0.5687499999999996,
          "durationTicks": 455,
          "midi": 81,
          "name": "A5",
          "ticks": 5760,
          "time": 7.199999999999999,
          "velocity": 0.6299212598425197
        },
        {
          "duration": 0.5687499999999988,
          "durationTicks": 455,
          "midi": 83,
          "name": "B5",
          "ticks": 6240,
          "time": 7.8,
          "velocity": 0.6299212598425197
        },
        {
          "duration": 0.5687499999999996,
          "durationTicks": 455,
          "midi": 84,
          "name": "C6",
          "ticks": 6720,
          "time": 8.4,
          "velocity": 0.6299212598425197
        },
        {
          "duration": 0.5687499999999996,
          "durationTicks": 455,
          "midi": 83,
          "name": "B5",
          "ticks": 7200,
          "time": 9,
          "velocity": 0.6299212598425197
        },
        {
          "duration": 0.5687500000000014,
          "durationTicks": 455,
          "midi": 81,
          "name": "A5",
          "ticks": 7680,
          "time": 9.6,
          "velocity": 0.6299212598425197
        },
        {
          "duration": 0.5687500000000014,
          "durationTicks": 455,
          "midi": 79,
          "name": "G5",
          "ticks": 8160,
          "time": 10.2,
          "velocity": 0.6299212598425197
        },
        {
          "duration": 0.5687500000000014,
          "durationTicks": 455,
          "midi": 77,
          "name": "F5",
          "ticks": 8640,
          "time": 10.799999999999999,
          "velocity": 0.6299212598425197
        },
        {
          "duration": 0.5687499999999996,
          "durationTicks": 455,
          "midi": 76,
          "name": "E5",
          "ticks": 9120,
          "time": 11.4,
          "velocity": 0.6299212598425197
        },
        {
          "duration": 0.5687499999999996,
          "durationTicks": 455,
          "midi": 74,
          "name": "D5",
          "ticks": 9600,
          "time": 12,
          "velocity": 0.6299212598425197
        },
        {
          "duration": 0.5687500000000014,
          "durationTicks": 455,
          "midi": 72,
          "name": "C5",
          "ticks": 10080,
          "time": 12.6,
          "velocity": 0.6299212598425197
        },
        {
          "duration": 0.5687500000000014,
          "durationTicks": 455,
          "midi": 71,
          "name": "B4",
          "ticks": 10560,
          "time": 13.2,
          "velocity": 0.6299212598425197
        },
        {
          "duration": 0.5687500000000014,
          "durationTicks": 455,
          "midi": 69,
          "name": "A4",
          "ticks": 11040,
          "time": 13.799999999999999,
          "velocity": 0.6299212598425197
        },
        {
          "duration": 0.5687500000000014,
          "durationTicks": 455,
          "midi": 67,
          "name": "G4",
          "ticks": 11520,
          "time": 14.399999999999999,
          "velocity": 0.6299212598425197
        },
        {
          "duration": 0.5687499999999996,
          "durationTicks": 455,
          "midi": 65,
          "name": "F4",
          "ticks": 12000,
          "time": 15,
          "velocity": 0.6299212598425197
        },
        {
          "duration": 0.5687499999999996,
          "durationTicks": 455,
          "midi": 64,
          "name": "E4",
          "ticks": 12480,
          "time": 15.6,
          "velocity": 0.6299212598425197
        },
        {
          "duration": 0.5687500000000014,
          "durationTicks": 455,
          "midi": 62,
          "name": "D4",
          "ticks": 12960,
          "time": 16.2,
          "velocity": 0.6299212598425197
        },
        {
          "duration": 2.2787499999999987,
          "durationTicks": 1823,
          "midi": 60,
          "name": "C4",
          "ticks": 13440,
          "time": 16.8,
          "velocity": 0.6299212598425197
        }
      ],
      "endOfTrackTicks": 15264
    }
  ]
}
