{
  "header": {
    "keySignatures": [
      {
        "key": "D",
        "scale": "major",
        "ticks": 0
      },
      {
        "key": "G",
        "scale": "major",
        "ticks": 23520
      }
    ],
    "meta": [],
    "name": "Xylophone\u0000",
    "ppq": 480,
    "tempos": [
      {
        "bpm": 100,
        "ticks": 0
      }
    ],
    "timeSignatures": [
      {
        "ticks": 0,
        "timeSignature": [
          4,
          4
        ],
        "measures": 0
      }
    ]
  },
  "tracks": [
    {
      "channel": 2,
      "controlChanges": {
        "7": [
          {
            "number": 7,
            "ticks": 0,
            "time": 0,
            "value": 0.7874015748031497
          }
        ],
        "10": [
          {
            "number": 10,
            "ticks": 0,
            "time": 0,
            "value": 0.5669291338582677
          }
        ],
        "91": [
          {
            "number": 91,
            "ticks": 0,
            "time": 0,
            "value": 1
          }
        ],
        "93": [
          {
            "number": 93,
            "ticks": 0,
            "time": 0,
            "value": 0
          }
        ]
      },
      "pitchBends": [],
      "instrument": {
        "family": "chromatic percussion",
        "name": "xylophone",
        "number": 13
      },
      "name": "",
      "notes": [
        {
          "duration": 0.14874999999999994,
          "durationTicks": 119,
          "midi": 69,
          "name": "A4",
          "ticks": 1560,
          "time": 1.95,
          "velocity": 0.8818897637795275
        },
        {
          "duration": 0.14874999999999972,
          "durationTicks": 119,
          "midi": 74,
          "name": "D5",
          "ticks": 1680,
          "time": 2.1,
          "velocity": 0.8818897637795275
        },
        {
          "duration": 0.14875000000000016,
          "durationTicks": 119,
          "midi": 76,
          "name": "E5",
          "ticks": 1800,
          "time": 2.25,
          "velocity": 0.8818897637795275
        },
        {
          "duration": 0.5987499999999999,
          "durationTicks": 479,
          "midi": 78,
          "name": "F#5",
          "ticks": 1920,
          "time": 2.4,
          "velocity": 0.8818897637795275
        },
        {
          "duration": 0.44875,
          "durationTicks": 359,
          "midi": 76,
          "name": "E5",
          "ticks": 2400,
          "time": 3,
          "velocity": 0.8818897637795275
        },
        {
          "duration": 0.14875000000000016,
          "durationTicks": 119,
          "midi": 74,
          "name": "D5",
          "ticks": 2760,
          "time": 3.4499999999999997,
          "velocity": 0.8818897637795275
        },
        {
          "duration": 0.14875000000000016,
          "durationTicks": 119,
          "midi": 76,
          "name": "E5",
          "ticks": 2880,
          "time": 3.5999999999999996,
          "velocity": 0.8818897637795275
        },
        {
          "duration": 0.14874999999999972,
          "durationTicks": 119,
          "midi": 74,
          "name": "D5",
          "ticks": 3000,
          "time": 3.75,
          "velocity": 0.8818897637795275
        },
        {
          "duration": 0.14875000000000016,
          "durationTicks": 119,
          "midi": 76,
          "name": "E5",
          "ticks": 3120,
          "time": 3.9,
          "velocity": 0.8818897637795275
        },
        {
          "duration": 0.14874999999999972,
          "durationTicks": 119,
          "midi": 78,
          "name": "F#5",
          "ticks": 3240,
          "time": 4.05,
          "velocity": 0.8818897637795275
        },
        {
          "duration": 0.29875000000000007,
          "durationTicks": 239,
          "midi": 76,
          "name": "E5",
          "ticks": 3360,
          "time": 4.2,
          "velocity": 0.8818897637795275
        },
        {
          "duration": 0.29875000000000007,
          "durationTicks": 239,
          "midi": 71,
          "name": "B4",
          "ticks": 3600,
          "time": 4.5,
          "velocity": 0.8818897637795275
        },
        {
          "duration": 0.29875000000000007,
          "durationTicks": 239,
          "midi": 74,
          "name": "D5",
          "ticks": 3840,
          "time": 4.8,
          "velocity": 0.8818897637795275
        },
        {
          "duration": 0.29875000000000007,
          "durationTicks": 239,
          "midi": 78,
          "name": "F#5",
          "ticks": 4080,
          "time": 5.1,
          "velocity": 0.8818897637795275
        },
        {
          "duration": 0.4487500000000004,
          "durationTicks": 359,
          "midi": 76,
          "name": "E5",
          "ticks": 4320,
          "time": 5.3999999999999995,
          "velocity": 0.8818897637795275
        },
        {
          "duration": 0.1487500000000006,
          "durationTicks": 119,
          "midi": 74,
          "name": "D5",
          "ticks": 4680,
          "time": 5.85,
          "velocity": 0.8818897637795275
        },
        {
          "duration": 0.14874999999999972,
          "durationTicks": 119,
          "midi": 76,
          "name": "E5",
          "ticks": 4800,
          "time": 6,
          "velocity": 0.8818897637795275
        },
        {
          "duration": 0.1487500000000006,
          "durationTicks": 119,
          "midi": 74,
          "name": "D5",
          "ticks": 4920,
          "time": 6.1499999999999995,
          "velocity": 0.8818897637795275
        },
        {
          "duration": 0.14874999999999972,
          "durationTicks": 119,
          "midi": 76,
          "name": "E5",
          "ticks": 5040,
          "time": 6.3,
          "velocity": 0.8818897637795275
        },
        {
          "duration": 0.14874999999999972,
          "durationTicks": 119,
          "midi": 81,
          "name": "A5",
          "ticks": 5160,
          "time": 6.45,
          "velocity": 0.8818897637795275
        },
        {
          "duration": 0.1487500000000006,
          "durationTicks": 119,
          "midi": 76,
          "name": "E5",
          "ticks": 5280,
          "time": 6.6,
          "velocity": 0.8818897637795275
        },
        {
          "duration": 0.14874999999999972,
          "durationTicks": 119,
          "midi": 74,
          "name": "D5",
          "ticks": 5400,
          "time": 6.75,
          "velocity": 0.8818897637795275
        },
        {
          "duration": 0.29875000000000007,
          "durationTicks": 239,
          "midi": 74,
          "name": "D5",
          "ticks": 5520,
          "time": 6.8999999999999995,
          "velocity": 0.8818897637795275
        },
        {
          "duration": 0.29875000000000007,
          "durationTicks": 239,
          "midi": 78,
          "name": "F#5",
          "ticks": 6000,
          "time": 7.5,
          "velocity": 0.8818897637795275
        },
        {
          "duration": 0.44874999999999954,
          "durationTicks": 359,
          "midi": 76,
          "name": "E5",
          "ticks": 6240,
          "time": 7.8,
          "velocity": 0.8818897637795275
        },
        {
          "duration": 0.14874999999999972,
          "durationTicks": 119,
          "midi": 74,
          "name": "D5",
          "ticks": 6600,
          "time": 8.25,
          "velocity": 0.8818897637795275
        },
        {
          "duration": 0.14874999999999972,
          "durationTicks": 119,
          "midi": 76,
          "name": "E5",
          "ticks": 6720,
          "time": 8.4,
          "velocity": 0.8818897637795275
        },
        {
          "duration": 0.1487500000000015,
          "durationTicks": 119,
          "midi": 74,
          "name": "D5",
          "ticks": 6840,
          "time": 8.549999999999999,
          "velocity": 0.8818897637795275
        },
        {
          "duration": 0.14874999999999972,
          "durationTicks": 119,
          "midi": 76,
          "name": "E5",
          "ticks": 6960,
          "time": 8.7,
          "velocity": 0.8818897637795275
        },
        {
          "duration": 0.14874999999999972,
          "durationTicks": 119,
          "midi": 78,
          "name": "F#5",
          "ticks": 7080,
          "time": 8.85,
          "velocity": 0.8818897637795275
        },
        {
          "duration": 0.29875000000000007,
          "durationTicks": 239,
          "midi": 76,
          "name": "E5",
          "ticks": 7200,
          "time": 9,
          "velocity": 0.8818897637795275
        },
        {
          "duration": 0.29875000000000007,
          "durationTicks": 239,
          "midi": 74,
          "name": "D5",
          "ticks": 7440,
          "time": 9.299999999999999,
          "velocity": 0.8818897637795275
        },
        {
          "duration": 0.598749999999999,
          "durationTicks": 479,
          "midi": 78,
          "name": "F#5",
          "ticks": 9600,
          "time": 12,
          "velocity": 0.8818897637795275
        },
        {
          "duration": 0.44874999999999865,
          "durationTicks": 359,
          "midi": 76,
          "name": "E5",
          "ticks": 10080,
          "time": 12.6,
          "velocity": 0.8818897637795275
        },
        {
          "duration": 0.14874999999999972,
          "durationTicks": 119,
          "midi": 74,
          "name": "D5",
          "ticks": 10440,
          "time": 13.049999999999999,
          "velocity": 0.8818897637795275
        },
        {
          "duration": 0.14874999999999972,
          "durationTicks": 119,
          "midi": 76,
          "name": "E5",
          "ticks": 10560,
          "time": 13.2,
          "velocity": 0.8818897637795275
        },
        {
          "duration": 0.14874999999999972,
          "durationTicks": 119,
          "midi": 74,
          "name": "D5",
          "ticks": 10680,
          "time": 13.35,
          "velocity": 0.8818897637795275
        },
        {
          "duration": 0.14874999999999794,
          "durationTicks": 119,
          "midi": 76,
          "name": "E5",
          "ticks": 10800,
          "time": 13.5,
          "velocity": 0.8818897637795275
        },
        {
          "duration": 0.14874999999999794,
          "durationTicks": 119,
          "midi": 78,
          "name": "F#5",
          "ticks": 10920,
          "time": 13.65,
          "velocity": 0.8818897637795275
        },
        {
          "duration": 0.29875000000000007,
          "durationTicks": 239,
          "midi": 76,
          "name": "E5",
          "ticks": 11040,
          "time": 13.799999999999999,
          "velocity": 0.8818897637795275
        },
        {
          "duration": 0.2987499999999983,
          "durationTicks": 239,
          "midi": 71,
          "name": "B4",
          "ticks": 11280,
          "time": 14.1,
          "velocity": 0.8818897637795275
        },
        {
          "duration": 0.29875000000000007,
          "durationTicks": 239,
          "midi": 74,
          "name": "D5",
          "ticks": 11520,
          "time": 14.399999999999999,
          "velocity": 0.8818897637795275
        },
        {
          "duration": 0.2987499999999983,
          "durationTicks": 239,
          "midi": 78,
          "name": "F#5",
          "ticks": 11760,
          "time": 14.7,
          "velocity": 0.8818897637795275
        },
        {
          "duration": 0.44874999999999865,
          "durationTicks": 359,
          "midi": 76,
          "name": "E5",
          "ticks": 12000,
          "time": 15,
          "velocity": 0.8818897637795275
        },
        {
          "duration": 0.14874999999999972,
          "durationTicks": 119,
          "midi": 74,
          "name": "D5",
          "ticks": 12360,
          "time": 15.45,
          "velocity": 0.8818897637795275
        },
        {
          "duration": 0.2987499999999983,
          "durationTicks": 239,
          "midi": 82,
          "name": "A#5",
          "ticks": 12480,
          "time": 15.6,
          "velocity": 0.8818897637795275
        },
        {
          "duration": 0.14874999999999972,
          "durationTicks": 119,
          "midi": 76,
          "name": "E5",
          "ticks": 12720,
          "time": 15.899999999999999,
          "velocity": 0.8818897637795275
        },
        {
          "duration": 0.14874999999999616,
          "durationTicks": 119,
          "midi": 78,
          "name": "F#5",
          "ticks": 12840,
          "time": 16.05,
          "velocity": 0.8818897637795275
        },
        {
          "duration": 0.14874999999999972,
          "durationTicks": 119,
          "midi": 76,
          "name": "E5",
          "ticks": 12960,
          "time": 16.2,
          "velocity": 0.8818897637795275
        },
        {
          "duration": 0.14874999999999972,
          "durationTicks": 119,
          "midi": 74,
          "name": "D5",
          "ticks": 13080,
          "time": 16.349999999999998,
          "velocity": 0.8818897637795275
        },
        {
          "duration": 0.2987499999999983,
          "durationTicks": 239,
          "midi": 74,
          "name": "D5",
          "ticks": 13200,
          "time": 16.5,
          "velocity": 0.8818897637795275
        },
        {
          "duration": 0.29875000000000185,
          "durationTicks": 239,
          "midi": 78,
          "name": "F#5",
          "ticks": 13680,
          "time": 17.099999999999998,
          "velocity": 0.8818897637795275
        },
        {
          "duration": 0.4487500000000004,
          "durationTicks": 359,
          "midi": 76,
          "name": "E5",
          "ticks": 13920,
          "time": 17.4,
          "velocity": 0.8818897637795275
        },
        {
          "duration": 0.14874999999999972,
          "durationTicks": 119,
          "midi": 74,
          "name": "D5",
          "ticks": 14280,
          "time": 17.849999999999998,
          "velocity": 0.8818897637795275
        },
        {
          "duration": 0.14874999999999972,
          "durationTicks": 119,
          "midi": 76,
          "name": "E5",
          "ticks": 14400,
          "time": 18,
          "velocity": 0.8818897637795275
        },
        {
          "duration": 0.14874999999999972,
          "durationTicks": 119,
          "midi": 74,
          "name": "D5",
          "ticks": 14520,
          "time": 18.15,
          "velocity": 0.8818897637795275
        },
        {
          "duration": 0.14874999999999616,
          "durationTicks": 119,
          "midi": 76,
          "name": "E5",
          "ticks": 14640,
          "time": 18.3,
          "velocity": 0.8818897637795275
        },
        {
          "duration": 0.14874999999999972,
          "durationTicks": 119,
          "midi": 78,
          "name": "F#5",
          "ticks": 14760,
          "time": 18.45,
          "velocity": 0.8818897637795275
        },
        {
          "duration": 0.14874999999999972,
          "durationTicks": 119,
          "midi": 76,
          "name": "E5",
          "ticks": 14880,
          "time": 18.599999999999998,
          "velocity": 0.8818897637795275
        },
        {
          "duration": 0.14874999999999972,
          "durationTicks": 119,
          "midi": 74,
          "name": "D5",
          "ticks": 15000,
          "time": 18.75,
          "velocity": 0.8818897637795275
        },
        {
          "duration": 0.2987499999999983,
          "durationTicks": 239,
          "midi": 74,
          "name": "D5",
          "ticks": 15120,
          "time": 18.9,
          "velocity": 0.8818897637795275
        },
        {
          "duration": 0.29875000000000185,
          "durationTicks": 239,
          "midi": 74,
          "name": "D5",
          "ticks": 17520,
          "time": 21.9,
          "velocity": 0.8818897637795275
        },
        {
          "duration": 0.4487500000000004,
          "durationTicks": 359,
          "midi": 74,
          "name": "D5",
          "ticks": 17760,
          "time": 22.2,
          "velocity": 0.8818897637795275
        },
        {
          "duration": 0.14875000000000327,
          "durationTicks": 119,
          "midi": 71,
          "name": "B4",
          "ticks": 18120,
          "time": 22.65,
          "velocity": 0.8818897637795275
        },
        {
          "duration": 0.14874999999999972,
          "durationTicks": 119,
          "midi": 74,
          "name": "D5",
          "ticks": 18240,
          "time": 22.8,
          "velocity": 0.8818897637795275
        },
        {
          "duration": 0.14874999999999972,
          "durationTicks": 119,
          "midi": 71,
          "name": "B4",
          "ticks": 18360,
          "time": 22.95,
          "velocity": 0.8818897637795275
        },
        {
          "duration": 0.14875000000000327,
          "durationTicks": 119,
          "midi": 74,
          "name": "D5",
          "ticks": 18480,
          "time": 23.099999999999998,
          "velocity": 0.8818897637795275
        },
        {
          "duration": 0.14874999999999972,
          "durationTicks": 119,
          "midi": 71,
          "name": "B4",
          "ticks": 18600,
          "time": 23.25,
          "velocity": 0.8818897637795275
        },
        {
          "duration": 0.29875000000000185,
          "durationTicks": 239,
          "midi": 74,
          "name": "D5",
          "ticks": 18720,
          "time": 23.4,
          "velocity": 0.8818897637795275
        },
        {
          "duration": 0.29875000000000185,
          "durationTicks": 239,
          "midi": 78,
          "name": "F#5",
          "ticks": 18960,
          "time": 23.7,
          "velocity": 0.8818897637795275
        },
        {
          "duration": 0.14874999999999972,
          "durationTicks": 119,
          "midi": 66,
          "name": "F#4",
          "ticks": 19440,
          "time": 24.3,
          "velocity": 0.8818897637795275
        },
        {
          "duration": 0.14874999999999972,
          "durationTicks": 119,
          "midi": 67,
          "name": "G4",
          "ticks": 19560,
          "time": 24.45,
          "velocity": 0.8818897637795275
        },
        {
          "duration": 0.29875000000000185,
          "durationTicks": 239,
          "midi": 69,
          "name": "A4",
          "ticks": 19680,
          "time": 24.599999999999998,
          "velocity": 0.8818897637795275
        },
        {
          "duration": 0.14875000000000327,
          "durationTicks": 119,
          "midi": 66,
          "name": "F#4",
          "ticks": 19920,
          "time": 24.9,
          "velocity": 0.8818897637795275
        },
        {
          "duration": 0.14874999999999972,
          "durationTicks": 119,
          "midi": 67,
          "name": "G4",
          "ticks": 20040,
          "time": 25.05,
          "velocity": 0.8818897637795275
        },
        {
          "duration": 0.29875000000000185,
          "durationTicks": 239,
          "midi": 69,
          "name": "A4",
          "ticks": 20160,
          "time": 25.2,
          "velocity": 0.8818897637795275
        },
        {
          "duration": 0.29875000000000185,
          "durationTicks": 239,
          "midi": 76,
          "name": "E5",
          "ticks": 20400,
          "time": 25.5,
          "velocity": 0.8818897637795275
        },
        {
          "duration": 0.2987499999999983,
          "durationTicks": 239,
          "midi": 78,
          "name": "F#5",
          "ticks": 20640,
          "time": 25.8,
          "velocity": 0.8818897637795275
        },
        {
          "duration": 0.14875000000000327,
          "durationTicks": 119,
          "midi": 79,
          "name": "G5",
          "ticks": 20880,
          "time": 26.099999999999998,
          "velocity": 0.8818897637795275
        },
        {
          "duration": 0.29875000000000185,
          "durationTicks": 239,
          "midi": 78,
          "name": "F#5",
          "ticks": 21000,
          "time": 26.25,
          "velocity": 0.8818897637795275
        },
        {
          "duration": 0.14874999999999972,
          "durationTicks": 119,
          "midi": 71,
          "name": "B4",
          "ticks": 21240,
          "time": 26.55,
          "velocity": 0.8818897637795275
        },
        {
          "duration": 0.29875000000000185,
          "durationTicks": 239,
          "midi": 74,
          "name": "D5",
          "ticks": 21360,
          "time": 26.7,
          "velocity": 0.8818897637795275
        },
        {
          "duration": 0.14875000000000327,
          "durationTicks": 119,
          "midi": 71,
          "name": "B4",
          "ticks": 21720,
          "time": 27.15,
          "velocity": 0.8818897637795275
        },
        {
          "duration": 0.14874999999999972,
          "durationTicks": 119,
          "midi": 71,
          "name": "B4",
          "ticks": 21840,
          "time": 27.3,
          "velocity": 0.8818897637795275
        },
        {
          "duration": 0.14874999999999972,
          "durationTicks": 119,
          "midi": 73,
          "name": "C#5",
          "ticks": 21960,
          "time": 27.45,
          "velocity": 0.8818897637795275
        },
        {
          "duration": 0.29875000000000185,
          "durationTicks": 239,
          "midi": 74,
          "name": "D5",
          "ticks": 22080,
          "time": 27.599999999999998,
          "velocity": 0.8818897637795275
        },
        {
          "duration": 0.29875000000000185,
          "durationTicks": 239,
          "midi": 73,
          "name": "C#5",
          "ticks": 22320,
          "time": 27.9,
          "velocity": 0.8818897637795275
        },
        {
          "duration": 0.14874999999999972,
          "durationTicks": 119,
          "midi": 71,
          "name": "B4",
          "ticks": 22560,
          "time": 28.2,
          "velocity": 0.8818897637795275
        },
        {
          "duration": 0.14875000000000327,
          "durationTicks": 119,
          "midi": 73,
          "name": "C#5",
          "ticks": 22680,
          "time": 28.349999999999998,
          "velocity": 0.8818897637795275
        },
        {
          "duration": 0.29875000000000185,
          "durationTicks": 239,
          "midi": 76,
          "name": "E5",
          "ticks": 22800,
          "time": 28.5,
          "velocity": 0.8818897637795275
        },
        {
          "duration": 2.3987500000000033,
          "durationTicks": 1919,
          "midi": 74,
          "name": "D5",
          "ticks": 23040,
          "time": 28.799999999999997,
          "velocity": 0.8818897637795275
        },
        {
          "duration": 0.14874999999999972,
          "durationTicks": 119,
          "midi": 79,
          "name": "G5",
          "ticks": 24960,
          "time": 31.2,
          "velocity": 0.8818897637795275
        },
        {
          "duration": 0.29875000000000185,
          "durationTicks": 239,
          "midi": 81,
          "name": "A5",
          "ticks": 25080,
          "time": 31.349999999999998,
          "velocity": 0.8818897637795275
        },
        {
          "duration": 0.14874999999999972,
          "durationTicks": 119,
          "midi": 79,
          "name": "G5",
          "ticks": 25320,
          "time": 31.65,
          "velocity": 0.8818897637795275
        },
        {
          "duration": 0.2987500000000054,
          "durationTicks": 239,
          "midi": 81,
          "name": "A5",
          "ticks": 25440,
          "time": 31.799999999999997,
          "velocity": 0.8818897637795275
        },
        {
          "duration": 0.14874999999999972,
          "durationTicks": 119,
          "midi": 79,
          "name": "G5",
          "ticks": 25680,
          "time": 32.1,
          "velocity": 0.8818897637795275
        },
        {
          "duration": 0.2987499999999983,
          "durationTicks": 239,
          "midi": 86,
          "name": "D6",
          "ticks": 25800,
          "time": 32.25,
          "velocity": 0.8818897637795275
        },
        {
          "duration": 0.14874999999999972,
          "durationTicks": 119,
          "midi": 79,
          "name": "G5",
          "ticks": 26040,
          "time": 32.55,
          "velocity": 0.8818897637795275
        },
        {
          "duration": 0.14875000000000682,
          "durationTicks": 119,
          "midi": 81,
          "name": "A5",
          "ticks": 26160,
          "time": 32.699999999999996,
          "velocity": 0.8818897637795275
        },
        {
          "duration": 0.14874999999999972,
          "durationTicks": 119,
          "midi": 83,
          "name": "B5",
          "ticks": 26280,
          "time": 32.85,
          "velocity": 0.8818897637795275
        },
        {
          "duration": 0.2987499999999983,
          "durationTicks": 239,
          "midi": 81,
          "name": "A5",
          "ticks": 26400,
          "time": 33,
          "velocity": 0.8818897637795275
        },
        {
          "duration": 0.14874999999999972,
          "durationTicks": 119,
          "midi": 79,
          "name": "G5",
          "ticks": 26640,
          "time": 33.3,
          "velocity": 0.8818897637795275
        },
        {
          "duration": 0.14875000000000682,
          "durationTicks": 119,
          "midi": 75,
          "name": "D#5",
          "ticks": 26760,
          "time": 33.449999999999996,
          "velocity": 0.8818897637795275
        },
        {
          "duration": 0.14874999999999972,
          "durationTicks": 119,
          "midi": 79,
          "name": "G5",
          "ticks": 26880,
          "time": 33.6,
          "velocity": 0.8818897637795275
        },
        {
          "duration": 0.2987499999999983,
          "durationTicks": 239,
          "midi": 81,
          "name": "A5",
          "ticks": 27000,
          "time": 33.75,
          "velocity": 0.8818897637795275
        },
        {
          "duration": 0.14874999999999972,
          "durationTicks": 119,
          "midi": 79,
          "name": "G5",
          "ticks": 27240,
          "time": 34.05,
          "velocity": 0.8818897637795275
        },
        {
          "duration": 0.2987500000000054,
          "durationTicks": 239,
          "midi": 81,
          "name": "A5",
          "ticks": 27360,
          "time": 34.199999999999996,
          "velocity": 0.8818897637795275
        },
        {
          "duration": 0.14874999999999972,
          "durationTicks": 119,
          "midi": 79,
          "name": "G5",
          "ticks": 27600,
          "time": 34.5,
          "velocity": 0.8818897637795275
        },
        {
          "duration": 0.2987499999999983,
          "durationTicks": 239,
          "midi": 87,
          "name": "D#6",
          "ticks": 27720,
          "time": 34.65,
          "velocity": 0.8818897637795275
        },
        {
          "duration": 0.14875000000000682,
          "durationTicks": 119,
          "midi": 79,
          "name": "G5",
          "ticks": 27960,
          "time": 34.949999999999996,
          "velocity": 0.8818897637795275
        },
        {
          "duration": 0.14874999999999972,
          "durationTicks": 119,
          "midi": 81,
          "name": "A5",
          "ticks": 28080,
          "time": 35.1,
          "velocity": 0.8818897637795275
        },
        {
          "duration": 0.14874999999999972,
          "durationTicks": 119,
          "midi": 83,
          "name": "B5",
          "ticks": 28200,
          "time": 35.25,
          "velocity": 0.8818897637795275
        },
        {
          "duration": 0.2987499999999983,
          "durationTicks": 239,
          "midi": 81,
          "name": "A5",
          "ticks": 28320,
          "time": 35.4,
          "velocity": 0.8818897637795275
        },
        {
          "duration": 0.14875000000000682,
          "durationTicks": 119,
          "midi": 79,
          "name": "G5",
          "ticks": 28560,
          "time": 35.699999999999996,
          "velocity": 0.8818897637795275
        },
        {
          "duration": 0.14874999999999972,
          "durationTicks": 119,
          "midi": 78,
          "name": "F#5",
          "ticks": 28680,
          "time": 35.85,
          "velocity": 0.8818897637795275
        },
        {
          "duration": 0.2987499999999983,
          "durationTicks": 239,
          "midi": 79,
          "name": "G5",
          "ticks": 28800,
          "time": 36,
          "velocity": 0.8818897637795275
        },
        {
          "duration": 0.14875000000000682,
          "durationTicks": 119,
          "midi": 76,
          "name": "E5",
          "ticks": 29160,
          "time": 36.449999999999996,
          "velocity": 0.8818897637795275
        },
        {
          "duration": 0.14874999999999972,
          "durationTicks": 119,
          "midi": 79,
          "name": "G5",
          "ticks": 29280,
          "time": 36.6,
          "velocity": 0.8818897637795275
        },
        {
          "duration": 0.14874999999999972,
          "durationTicks": 119,
          "midi": 81,
          "name": "A5",
          "ticks": 29400,
          "time": 36.75,
          "velocity": 0.8818897637795275
        },
        {
          "duration": 0.14874999999999972,
          "durationTicks": 119,
          "midi": 83,
          "name": "B5",
          "ticks": 29520,
          "time": 36.9,
          "velocity": 0.8818897637795275
        },
        {
          "duration": 0.14874999999999972,
          "durationTicks": 119,
          "midi": 84,
          "name": "C6",
          "ticks": 29640,
          "time": 37.05,
          "velocity": 0.8818897637795275
        },
        {
          "duration": 0.2987500000000054,
          "durationTicks": 239,
          "midi": 86,
          "name": "D6",
          "ticks": 29760,
          "time": 37.199999999999996,
          "velocity": 0.8818897637795275
        },
        {
          "duration": 0.2987499999999983,
          "durationTicks": 239,
          "midi": 83,
          "name": "B5",
          "ticks": 30000,
          "time": 37.5,
          "velocity": 0.8818897637795275
        },
        {
          "duration": 0.2987500000000054,
          "durationTicks": 239,
          "midi": 86,
          "name": "D6",
          "ticks": 30240,
          "time": 37.8,
          "velocity": 0.8818897637795275
        },
        {
          "duration": 0.2987499999999983,
          "durationTicks": 239,
          "midi": 88,
          "name": "E6",
          "ticks": 30480,
          "time": 38.1,
          "velocity": 0.8818897637795275
        },
        {
          "duration": 0.5987500000000026,
          "durationTicks": 479,
          "midi": 86,
          "name": "D6",
          "ticks": 30720,
          "time": 38.4,
          "velocity": 0.8818897637795275
        },
        {
          "duration": 0.5987500000000026,
          "durationTicks": 479,
          "midi": 81,
          "name": "A5",
          "ticks": 31200,
          "time": 39,
          "velocity": 0.8818897637795275
        },
        {
          "duration": 0.5987499999999955,
          "durationTicks": 479,
          "midi": 84,
          "name": "C6",
          "ticks": 31680,
          "time": 39.6,
          "velocity": 0.8818897637795275
        },
        {
          "duration": 0.5987500000000026,
          "durationTicks": 479,
          "midi": 83,
          "name": "B5",
          "ticks": 32160,
          "time": 40.199999999999996,
          "velocity": 0.8818897637795275
        },
        {
          "duration": 0.5987500000000026,
          "durationTicks": 479,
          "midi": 76,
          "name": "E5",
          "ticks": 32640,
          "time": 40.8,
          "velocity": 0.9921259842519685
        },
        {
          "duration": 0.2987500000000054,
          "durationTicks": 239,
          "midi": 76,
          "name": "E5",
          "ticks": 33360,
          "time": 41.699999999999996,
          "velocity": 0.9921259842519685
        },
        {
          "duration": 0.2987499999999983,
          "durationTicks": 239,
          "midi": 83,
          "name": "B5",
          "ticks": 33600,
          "time": 42,
          "velocity": 0.9921259842519685
        },
        {
          "duration": 0.2987500000000054,
          "durationTicks": 239,
          "midi": 81,
          "name": "A5",
          "ticks": 33840,
          "time": 42.3,
          "velocity": 0.9921259842519685
        },
        {
          "duration": 0.2987499999999983,
          "durationTicks": 239,
          "midi": 79,
          "name": "G5",
          "ticks": 34080,
          "time": 42.6,
          "velocity": 0.9921259842519685
        },
        {
          "duration": 0.2987499999999983,
          "durationTicks": 239,
          "midi": 75,
          "name": "D#5",
          "ticks": 34320,
          "time": 42.9,
          "velocity": 0.9921259842519685
        },
        {
          "duration": 0.5987500000000026,
          "durationTicks": 479,
          "midi": 74,
          "name": "D5",
          "ticks": 34560,
          "time": 43.199999999999996,
          "velocity": 0.9921259842519685
        },
        {
          "duration": 0.2987499999999983,
          "durationTicks": 239,
          "midi": 74,
          "name": "D5",
          "ticks": 35280,
          "time": 44.1,
          "velocity": 0.9921259842519685
        },
        {
          "duration": 0.2987499999999983,
          "durationTicks": 239,
          "midi": 79,
          "name": "G5",
          "ticks": 35520,
          "time": 44.4,
          "velocity": 0.9921259842519685
        },
        {
          "duration": 0.2987500000000054,
          "durationTicks": 239,
          "midi": 78,
          "name": "F#5",
          "ticks": 35760,
          "time": 44.699999999999996,
          "velocity": 0.9921259842519685
        },
        {
          "duration": 0.2987499999999983,
          "durationTicks": 239,
          "midi": 74,
          "name": "D5",
          "ticks": 36000,
          "time": 45,
          "velocity": 0.9921259842519685
        },
        {
          "duration": 0.2987500000000054,
          "durationTicks": 239,
          "midi": 71,
          "name": "B4",
          "ticks": 36240,
          "time": 45.3,
          "velocity": 0.9921259842519685
        },
        {
          "duration": 0.2987499999999983,
          "durationTicks": 239,
          "midi": 72,
          "name": "C5",
          "ticks": 36480,
          "time": 45.6,
          "velocity": 0.9921259842519685
        },
        {
          "duration": 0.2987499999999983,
          "durationTicks": 239,
          "midi": 74,
          "name": "D5",
          "ticks": 36720,
          "time": 45.9,
          "velocity": 0.9921259842519685
        },
        {
          "duration": 0.2987500000000054,
          "durationTicks": 239,
          "midi": 75,
          "name": "D#5",
          "ticks": 36960,
          "time": 46.199999999999996,
          "velocity": 0.9921259842519685
        },
        {
          "duration": 0.5987500000000026,
          "durationTicks": 479,
          "midi": 75,
          "name": "D#5",
          "ticks": 37200,
          "time": 46.5,
          "velocity": 0.9921259842519685
        },
        {
          "duration": 0.2987499999999983,
          "durationTicks": 239,
          "midi": 74,
          "name": "D5",
          "ticks": 37680,
          "time": 47.1,
          "velocity": 0.9921259842519685
        },
        {
          "duration": 0.2987499999999983,
          "durationTicks": 239,
          "midi": 72,
          "name": "C5",
          "ticks": 37920,
          "time": 47.4,
          "velocity": 0.9921259842519685
        },
        {
          "duration": 0.5987500000000026,
          "durationTicks": 479,
          "midi": 79,
          "name": "G5",
          "ticks": 38160,
          "time": 47.699999999999996,
          "velocity": 0.9921259842519685
        },
        {
          "duration": 0.5987500000000026,
          "durationTicks": 479,
          "midi": 75,
          "name": "D#5",
          "ticks": 38640,
          "time": 48.3,
          "velocity": 0.9921259842519685
        },
        {
          "duration": 0.5987500000000026,
          "durationTicks": 479,
          "midi": 79,
          "name": "G5",
          "ticks": 39120,
          "time": 48.9,
          "velocity": 0.9921259842519685
        },
        {
          "duration": 0.2987499999999983,
          "durationTicks": 239,
          "midi": 81,
          "name": "A5",
          "ticks": 39600,
          "time": 49.5,
          "velocity": 0.9921259842519685
        },
        {
          "duration": 0.5987500000000026,
          "durationTicks": 479,
          "midi": 81,
          "name": "A5",
          "ticks": 39840,
          "time": 49.8,
          "velocity": 0.9921259842519685
        },
        {
          "duration": 0.14874999999999972,
          "durationTicks": 119,
          "midi": 79,
          "name": "G5",
          "ticks": 40320,
          "time": 50.4,
          "velocity": 0.9921259842519685
        },
        {
          "duration": 0.2987500000000054,
          "durationTicks": 239,
          "midi": 81,
          "name": "A5",
          "ticks": 40440,
          "time": 50.55,
          "velocity": 0.9921259842519685
        },
        {
          "duration": 0.14874999999999972,
          "durationTicks": 119,
          "midi": 79,
          "name": "G5",
          "ticks": 40680,
          "time": 50.85,
          "velocity": 0.9921259842519685
        },
        {
          "duration": 0.2987499999999983,
          "durationTicks": 239,
          "midi": 81,
          "name": "A5",
          "ticks": 40800,
          "time": 51,
          "velocity": 0.9921259842519685
        },
        {
          "duration": 0.14874999999999972,
          "durationTicks": 119,
          "midi": 79,
          "name": "G5",
          "ticks": 41040,
          "time": 51.3,
          "velocity": 0.9921259842519685
        },
        {
          "duration": 0.2987500000000054,
          "durationTicks": 239,
          "midi": 86,
          "name": "D6",
          "ticks": 41160,
          "time": 51.449999999999996,
          "velocity": 0.9921259842519685
        },
        {
          "duration": 0.14874999999999972,
          "durationTicks": 119,
          "midi": 79,
          "name": "G5",
          "ticks": 41400,
          "time": 51.75,
          "velocity": 0.9921259842519685
        },
        {
          "duration": 0.14874999999999972,
          "durationTicks": 119,
          "midi": 81,
          "name": "A5",
          "ticks": 41520,
          "time": 51.9,
          "velocity": 0.9921259842519685
        },
        {
          "duration": 0.14874999999999972,
          "durationTicks": 119,
          "midi": 83,
          "name": "B5",
          "ticks": 41640,
          "time": 52.05,
          "velocity": 0.9921259842519685
        },
        {
          "duration": 0.2987500000000054,
          "durationTicks": 239,
          "midi": 81,
          "name": "A5",
          "ticks": 41760,
          "time": 52.199999999999996,
          "velocity": 0.9921259842519685
        },
        {
          "duration": 0.2987499999999983,
          "durationTicks": 239,
          "midi": 79,
          "name": "G5",
          "ticks": 42000,
          "time": 52.5,
          "velocity": 0.9921259842519685
        },
        {
          "duration": 0.14874999999999972,
          "durationTicks": 119,
          "midi": 79,
          "name": "G5",
          "ticks": 42240,
          "time": 52.8,
          "velocity": 0.9921259842519685
        },
        {
          "duration": 0.2987500000000054,
          "durationTicks": 239,
          "midi": 81,
          "name": "A5",
          "ticks": 42360,
          "time": 52.949999999999996,
          "velocity": 0.9921259842519685
        },
        {
          "duration": 0.14874999999999972,
          "durationTicks": 119,
          "midi": 79,
          "name": "G5",
          "ticks": 42600,
          "time": 53.25,
          "velocity": 0.9921259842519685
        },
        {
          "duration": 0.2987499999999983,
          "durationTicks": 239,
          "midi": 81,
          "name": "A5",
          "ticks": 42720,
          "time": 53.4,
          "velocity": 0.9921259842519685
        },
        {
          "duration": 0.14875000000000682,
          "durationTicks": 119,
          "midi": 79,
          "name": "G5",
          "ticks": 42960,
          "time": 53.699999999999996,
          "velocity": 0.9921259842519685
        },
        {
          "duration": 0.2987499999999983,
          "durationTicks": 239,
          "midi": 87,
          "name": "D#6",
          "ticks": 43080,
          "time": 53.85,
          "velocity": 0.9921259842519685
        },
        {
          "duration": 0.14874999999999972,
          "durationTicks": 119,
          "midi": 79,
          "name": "G5",
          "ticks": 43320,
          "time": 54.15,
          "velocity": 0.9921259842519685
        },
        {
          "duration": 0.14874999999999972,
          "durationTicks": 119,
          "midi": 81,
          "name": "A5",
          "ticks": 43440,
          "time": 54.3,
          "velocity": 0.9921259842519685
        },
        {
          "duration": 0.14875000000000682,
          "durationTicks": 119,
          "midi": 83,
          "name": "B5",
          "ticks": 43560,
          "time": 54.449999999999996,
          "velocity": 0.9921259842519685
        },
        {
          "duration": 0.2987499999999983,
          "durationTicks": 239,
          "midi": 81,
          "name": "A5",
          "ticks": 43680,
          "time": 54.6,
          "velocity": 0.9921259842519685
        },
        {
          "duration": 0.2987499999999983,
          "durationTicks": 239,
          "midi": 79,
          "name": "G5",
          "ticks": 43920,
          "time": 54.9,
          "velocity": 0.9921259842519685
        },
        {
          "duration": 0.2987499999999983,
          "durationTicks": 239,
          "midi": 81,
          "name": "A5",
          "ticks": 44280,
          "time": 55.35,
          "velocity": 0.9921259842519685
        },
        {
          "duration": 0.14874999999999972,
          "durationTicks": 119,
          "midi": 79,
          "name": "G5",
          "ticks": 44520,
          "time": 55.65,
          "velocity": 0.9921259842519685
        },
        {
          "duration": 0.2987500000000054,
          "durationTicks": 239,
          "midi": 81,
          "name": "A5",
          "ticks": 44640,
          "time": 55.8,
          "velocity": 0.9921259842519685
        },
        {
          "duration": 0.2987499999999983,
          "durationTicks": 239,
          "midi": 79,
          "name": "G5",
          "ticks": 44880,
          "time": 56.1,
          "velocity": 0.9921259842519685
        },
        {
          "duration": 0.2987499999999983,
          "durationTicks": 239,
          "midi": 86,
          "name": "D6",
          "ticks": 45120,
          "time": 56.4,
          "velocity": 0.9921259842519685
        },
        {
          "duration": 0.2987500000000054,
          "durationTicks": 239,
          "midi": 83,
          "name": "B5",
          "ticks": 45360,
          "time": 56.699999999999996,
          "velocity": 0.9921259842519685
        },
        {
          "duration": 0.2987499999999983,
          "durationTicks": 239,
          "midi": 86,
          "name": "D6",
          "ticks": 45600,
          "time": 57,
          "velocity": 0.9921259842519685
        },
        {
          "duration": 0.2987500000000054,
          "durationTicks": 239,
          "midi": 88,
          "name": "E6",
          "ticks": 45840,
          "time": 57.3,
          "velocity": 0.9921259842519685
        },
        {
          "duration": 0.5987500000000026,
          "durationTicks": 479,
          "midi": 86,
          "name": "D6",
          "ticks": 46080,
          "time": 57.599999999999994,
          "velocity": 0.9921259842519685
        },
        {
          "duration": 0.5987500000000026,
          "durationTicks": 479,
          "midi": 83,
          "name": "B5",
          "ticks": 46560,
          "time": 58.199999999999996,
          "velocity": 0.9921259842519685
        },
        {
          "duration": 0.5987500000000026,
          "durationTicks": 479,
          "midi": 84,
          "name": "C6",
          "ticks": 47040,
          "time": 58.8,
          "velocity": 0.9921259842519685
        },
        {
          "duration": 0.5987500000000026,
          "durationTicks": 479,
          "midi": 83,
          "name": "B5",
          "ticks": 47520,
          "time": 59.4,
          "velocity": 0.9921259842519685
        },
        {
          "duration": 0.5987499999999955,
          "durationTicks": 479,
          "midi": 76,
          "name": "E5",
          "ticks": 48000,
          "time": 60,
          "velocity": 0.9921259842519685
        },
        {
          "duration": 0.2987499999999983,
          "durationTicks": 239,
          "midi": 76,
          "name": "E5",
          "ticks": 48720,
          "time": 60.9,
          "velocity": 0.9921259842519685
        },
        {
          "duration": 0.2987500000000054,
          "durationTicks": 239,
          "midi": 83,
          "name": "B5",
          "ticks": 48960,
          "time": 61.199999999999996,
          "velocity": 0.9921259842519685
        },
        {
          "duration": 0.2987499999999983,
          "durationTicks": 239,
          "midi": 81,
          "name": "A5",
          "ticks": 49200,
          "time": 61.5,
          "velocity": 0.9921259842519685
        },
        {
          "duration": 0.2987499999999983,
          "durationTicks": 239,
          "midi": 79,
          "name": "G5",
          "ticks": 49440,
          "time": 61.8,
          "velocity": 0.9921259842519685
        },
        {
          "duration": 0.2987500000000054,
          "durationTicks": 239,
          "midi": 75,
          "name": "D#5",
          "ticks": 49680,
          "time": 62.099999999999994,
          "velocity": 0.9921259842519685
        },
        {
          "duration": 0.5987500000000026,
          "durationTicks": 479,
          "midi": 74,
          "name": "D5",
          "ticks": 49920,
          "time": 62.4,
          "velocity": 0.9921259842519685
        },
        {
          "duration": 0.2987499999999983,
          "durationTicks": 239,
          "midi": 86,
          "name": "D6",
          "ticks": 50640,
          "time": 63.3,
          "velocity": 0.9921259842519685
        },
        {
          "duration": 0.2987500000000054,
          "durationTicks": 239,
          "midi": 84,
          "name": "C6",
          "ticks": 50880,
          "time": 63.599999999999994,
          "velocity": 0.9921259842519685
        },
        {
          "duration": 0.2987500000000054,
          "durationTicks": 239,
          "midi": 83,
          "name": "B5",
          "ticks": 51120,
          "time": 63.9,
          "velocity": 0.9921259842519685
        },
        {
          "duration": 0.2987499999999983,
          "durationTicks": 239,
          "midi": 81,
          "name": "A5",
          "ticks": 51360,
          "time": 64.2,
          "velocity": 0.9921259842519685
        },
        {
          "duration": 0.2987499999999983,
          "durationTicks": 239,
          "midi": 83,
          "name": "B5",
          "ticks": 51600,
          "time": 64.5,
          "velocity": 0.9921259842519685
        },
        {
          "duration": 0.2987499999999983,
          "durationTicks": 239,
          "midi": 83,
          "name": "B5",
          "ticks": 51840,
          "time": 64.8,
          "velocity": 0.9921259842519685
        },
        {
          "duration": 0.14875000000000682,
          "durationTicks": 119,
          "midi": 76,
          "name": "E5",
          "ticks": 52080,
          "time": 65.1,
          "velocity": 0.9921259842519685
        },
        {
          "duration": 0.2987499999999983,
          "durationTicks": 239,
          "midi": 79,
          "name": "G5",
          "ticks": 52200,
          "time": 65.25,
          "velocity": 0.9921259842519685
        },
        {
          "duration": 0.14875000000000682,
          "durationTicks": 119,
          "midi": 76,
          "name": "E5",
          "ticks": 52440,
          "time": 65.55,
          "velocity": 0.9921259842519685
        },
        {
          "duration": 0.1487499999999926,
          "durationTicks": 119,
          "midi": 76,
          "name": "E5",
          "ticks": 52560,
          "time": 65.7,
          "velocity": 0.9921259842519685
        },
        {
          "duration": 0.14875000000000682,
          "durationTicks": 119,
          "midi": 78,
          "name": "F#5",
          "ticks": 52680,
          "time": 65.85,
          "velocity": 0.9921259842519685
        },
        {
          "duration": 0.2987499999999983,
          "durationTicks": 239,
          "midi": 79,
          "name": "G5",
          "ticks": 52800,
          "time": 66,
          "velocity": 0.9921259842519685
        },
        {
          "duration": 0.2987499999999983,
          "durationTicks": 239,
          "midi": 78,
          "name": "F#5",
          "ticks": 53040,
          "time": 66.3,
          "velocity": 0.9921259842519685
        },
        {
          "duration": 0.2987499999999983,
          "durationTicks": 239,
          "midi": 76,
          "name": "E5",
          "ticks": 53280,
          "time": 66.6,
          "velocity": 0.9921259842519685
        },
        {
          "duration": 0.2987500000000125,
          "durationTicks": 239,
          "midi": 78,
          "name": "F#5",
          "ticks": 53520,
          "time": 66.89999999999999,
          "velocity": 0.9921259842519685
        },
        {
          "duration": 2.3987499999999926,
          "durationTicks": 1919,
          "midi": 79,
          "name": "G5",
          "ticks": 53760,
          "time": 67.2,
          "velocity": 0.9921259842519685
        }
      ]
    }
  ]
}
