{
  "header": {
    "keySignatures": [
      {
        "key": "C",
        "scale": "major",
        "ticks": 0
      },
      {
        "key": "C",
        "scale": "major",
        "ticks": 0
      }
    ],
    "meta": [],
    "name": "Flute\u0000",
    "ppq": 480,
    "tempos": [
      {
        "bpm": 89.9999550000225,
        "ticks": 0
      }
    ],
    "timeSignatures": [
      {
        "ticks": 0,
        "timeSignature": [
          4,
          4
        ],
        "measures": 0
      }
    ]
  },
  "tracks": [
    {
      "channel": 0,
      "controlChanges": {
        "2": [
          {
            "number": 2,
            "ticks": 3840,
            "time": 5.333336,
            "value": 0.6299212598425197
          },
          {
            "number": 2,
            "ticks": 7680,
            "time": 10.666672,
            "value": 0.6299212598425197
          },
          {
            "number": 2,
            "ticks": 11520,
            "time": 16.000008,
            "value": 0.6299212598425197
          },
          {
            "number": 2,
            "ticks": 15360,
            "time": 21.333344,
            "value": 0.6299212598425197
          }
        ],
        "7": [
          {
            "number": 7,
            "ticks": 0,
            "time": 0,
            "value": 0.7874015748031497
          }
        ],
        "10": [
          {
            "number": 10,
            "ticks": 0,
            "time": 0,
            "value": 0.5039370078740157
          }
        ],
        "91": [
          {
            "number": 91,
            "ticks": 0,
            "time": 0,
            "value": 0
          }
        ],
        "93": [
          {
            "number": 93,
            "ticks": 0,
            "time": 0,
            "value": 0
          }
        ]
      },
      "pitchBends": [],
      "instrument": {
        "family": "pipe",
        "name": "flute",
        "number": 73
      },
      "name": "",
      "notes": [
        {
          "duration": 1.8986120604166663,
          "durationTicks": 1367,
          "midi": 72,
          "name": "C5",
          "ticks": 3840,
          "time": 5.333336,
          "velocity": 0.6299212598425197
        },
        {
          "duration": 1.8986120604166672,
          "durationTicks": 1367,
          "midi": 74,
          "name": "D5",
          "ticks": 7680,
          "time": 10.666672,
          "velocity": 0.6299212598425197
        },
        {
          "duration": 1.8986120604166672,
          "durationTicks": 1367,
          "midi": 67,
          "name": "G4",
          "ticks": 11520,
          "time": 16.000008,
          "velocity": 0.6299212598425197
        },
        {
          "duration": 1.8986120604166672,
          "durationTicks": 1367,
          "midi": 72,
          "name": "C5",
          "ticks": 15360,
          "time": 21.333344,
          "velocity": 0.6299212598425197
        }
      ]
    },
    {
      "channel": 1,
      "controlChanges": {
        "2": [
          {
            "number": 2,
            "ticks": 1920,
            "time": 2.666668,
            "value": 0.6299212598425197
          },
          {
            "number": 2,
            "ticks": 5760,
            "time": 8.000004,
            "value": 0.6299212598425197
          },
          {
            "number": 2,
            "ticks": 9600,
            "time": 13.33334,
            "value": 0.6299212598425197
          },
          {
            "number": 2,
            "ticks": 13440,
            "time": 18.666676,
            "value": 0.6299212598425197
          }
        ],
        "7": [
          {
            "number": 7,
            "ticks": 0,
            "time": 0,
            "value": 0.7874015748031497
          }
        ],
        "10": [
          {
            "number": 10,
            "ticks": 0,
            "time": 0,
            "value": 0.5039370078740157
          }
        ],
        "91": [
          {
            "number": 91,
            "ticks": 0,
            "time": 0,
            "value": 0
          }
        ],
        "93": [
          {
            "number": 93,
            "ticks": 0,
            "time": 0,
            "value": 0
          }
        ]
      },
      "pitchBends": [],
      "instrument": {
        "family": "pipe",
        "name": "flute",
        "number": 73
      },
      "name": "",
      "notes": [
        {
          "duration": 1.8986120604166667,
          "durationTicks": 1367,
          "midi": 72,
          "name": "C5",
          "ticks": 0,
          "time": 0,
          "velocity": 0.6299212598425197
        },
        {
          "duration": 1.8986120604166654,
          "durationTicks": 1367,
          "midi": 74,
          "name": "D5",
          "ticks": 5760,
          "time": 8.000004,
          "velocity": 0.6299212598425197
        },
        {
          "duration": 1.8986120604166672,
          "durationTicks": 1367,
          "midi": 67,
          "name": "G4",
          "ticks": 9600,
          "time": 13.33334,
          "velocity": 0.6299212598425197
        },
        {
          "duration": 1.8986120604166672,
          "durationTicks": 1367,
          "midi": 72,
          "name": "C5",
          "ticks": 13440,
          "time": 18.666676,
          "velocity": 0.6299212598425197
        }
      ]
    }
  ]
}
